<?xml version="1.0" standalone="no"?>
<!DOCTYPE svg PUBLIC "-//W3C//DTD SVG 20010904//EN"
 "http://www.w3.org/TR/2001/REC-SVG-20010904/DTD/svg10.dtd">
<svg version="1.0" xmlns="http://www.w3.org/2000/svg"
 width="300.000000pt" height="300.000000pt" viewBox="0 0 300.000000 300.000000"
 preserveAspectRatio="xMidYMid meet">
<metadata>
Created by potrace 1.11, written by Peter Selinger 2001-2013
</metadata>
<g transform="translate(0.000000,300.000000) scale(0.100000,-0.100000)"
fill="#000000" stroke="none">
<path d="M1400 2045 c-79 -17 -163 -61 -215 -114 l-46 -47 -46 43 c-174 162
-486 156 -643 -13 -59 -63 -83 -104 -110 -182 -28 -84 -34 -127 -33 -247 0
-122 15 -198 58 -292 82 -178 249 -275 450 -260 120 9 209 49 291 132 l42 43
42 -43 c156 -159 438 -167 617 -18 l50 42 32 -33 c64 -66 177 -111 289 -115
188 -7 344 84 425 249 47 94 67 188 67 310 0 236 -90 419 -248 503 -150 81
-377 65 -504 -35 -29 -23 -55 -46 -56 -50 -2 -5 -25 9 -50 30 -55 46 -110 75
-170 91 -60 17 -178 19 -242 6z m181 -214 c46 -17 96 -69 120 -123 20 -48 23
-68 23 -208 0 -140 -2 -160 -23 -205 -43 -97 -111 -144 -201 -142 -161 5 -251
193 -216 452 8 61 62 172 97 197 56 42 137 54 200 29z m694 -1 c99 -38 158
-177 151 -355 -3 -49 -10 -108 -17 -130 -7 -22 -12 -43 -11 -46 0 -3 -16 -28
-36 -55 -93 -123 -247 -124 -329 -1 -46 69 -53 103 -53 268 0 143 1 147 31
208 54 107 158 151 264 111z m-1405 -15 c33 -17 74 -62 95 -105 57 -113 55
-332 -4 -449 -79 -155 -274 -159 -361 -8 -37 66 -53 138 -52 249 1 129 42 245
103 290 60 45 158 55 219 23z"/>
</g>
</svg>
